<svg width="1728" height="1822" viewBox="0 0 1728 1822" fill="none" xmlns="http://www.w3.org/2000/svg">
<g clip-path="url(#clip0_8_108)">
<path d="M1728 0H0V1822H1728V0Z" fill="white"/>
<path d="M1728 546C1645.73 538.078 1563.29 530.156 1486.93 504.526C1410.4 478.896 1339.96 435.557 1286.91 382.278C1234.04 328.998 1198.55 265.622 1170.05 200.381C1141.37 134.985 1119.69 67.4151 1098 0H1728V546Z" fill="#E6F0FF"/>
<path d="M1728 436.8C1662.04 430.431 1596.26 424.063 1535.15 403.558C1474.03 383.054 1417.57 348.415 1375.09 305.853C1332.79 263.136 1304.48 212.497 1281.53 160.305C1258.77 107.957 1241.39 54.0563 1224 0H1728V436.8Z" fill="#B3D1FF"/>
<path d="M1728 327.6C1678.53 322.785 1629.24 318.125 1583.36 302.746C1537.48 287.368 1495.18 261.272 1463.45 229.273C1431.55 197.43 1410.4 159.373 1393.2 120.229C1375.99 80.9292 1362.9 40.5422 1350 0H1728V327.6Z" fill="#80B2FF"/>
<path d="M1728 218.4C1695.02 215.293 1662.04 212.031 1631.57 201.779C1600.92 191.527 1572.79 174.285 1551.64 152.849C1530.31 131.568 1516.15 106.249 1504.86 80.1525C1493.39 54.0563 1484.6 27.0282 1476 0H1728V218.4Z" fill="#4D94FF"/>
<path d="M1728 109.2C1711.51 107.647 1695.02 106.093 1679.79 100.967C1664.55 95.8413 1650.39 87.1425 1639.82 76.4245C1629.24 65.8617 1622.07 53.1243 1616.34 40.0762C1610.6 27.0282 1606.3 13.5141 1602 0H1728V109.2Z" fill="#1A75FF"/>
<path d="M0 594C65.0919 610.605 130.038 627.385 191.043 656.051C251.903 684.891 308.676 725.792 358.151 779.453C407.481 833.113 449.368 899.708 474.032 973.295C498.551 1046.88 505.849 1127.64 513 1208.39H0V594Z" fill="#E6F0FF"/>
<path d="M0 716.878C52.1029 730.162 104.06 743.446 152.806 766.518C201.552 789.59 246.941 822.276 286.493 865.275C326.044 908.273 359.466 961.409 379.169 1020.31C398.871 1079.22 404.709 1143.72 410.401 1208.39H0V716.878Z" fill="#B3D1FF"/>
<path d="M0 839.755C38.9675 849.718 78.0809 859.681 114.567 876.986C151.2 894.29 185.205 918.935 214.832 951.097C244.459 983.258 269.707 1023.11 284.448 1067.33C299.188 1111.38 303.567 1159.97 307.799 1208.39H0V839.755Z" fill="#80B2FF"/>
<path d="M0 962.633C25.9785 969.275 52.1029 975.917 76.4759 987.453C100.703 998.989 123.471 1015.42 143.173 1036.92C163.022 1058.24 179.806 1084.81 189.584 1114.35C199.509 1143.72 202.282 1176.05 205.201 1208.39H0V962.633Z" fill="#4D94FF"/>
<path d="M0 1085.51C12.9892 1088.83 25.9785 1092.15 38.238 1097.92C50.3515 1103.69 61.7353 1111.9 71.6597 1122.57C81.4381 1133.4 89.903 1146.69 94.8652 1161.37C99.6814 1176.05 101.141 1192.31 102.6 1208.39H0V1085.51Z" fill="#1A75FF"/>
<path d="M0 1822.5C65.0919 1805.89 130.038 1789.12 191.043 1760.45C251.903 1731.61 308.676 1690.71 358.151 1637.05C407.481 1583.39 449.368 1516.79 474.032 1443.2C498.551 1369.62 505.849 1288.86 513 1208.11H0V1822.5Z" fill="#E6F0FF"/>
<path d="M0 1699.62C52.1029 1686.34 104.06 1673.05 152.806 1649.98C201.552 1626.91 246.941 1594.22 286.493 1551.23C326.044 1508.23 359.466 1455.09 379.169 1396.19C398.871 1337.28 404.709 1272.78 410.401 1208.11H0V1699.62Z" fill="#B3D1FF"/>
<path d="M0 1576.74C38.9675 1566.78 78.0809 1556.82 114.567 1539.51C151.2 1522.21 185.205 1497.56 214.832 1465.4C244.459 1433.24 269.707 1393.39 284.448 1349.17C299.188 1305.12 303.567 1256.53 307.799 1208.11H0V1576.74Z" fill="#80B2FF"/>
<path d="M0 1453.87C25.9785 1447.23 52.1029 1440.58 76.4759 1429.05C100.703 1417.51 123.471 1401.08 143.173 1379.58C163.022 1358.26 179.806 1331.69 189.584 1302.15C199.509 1272.78 202.282 1240.45 205.201 1208.11H0V1453.87Z" fill="#4D94FF"/>
<path d="M0 1330.99C12.9892 1327.67 25.9785 1324.35 38.238 1318.58C50.3515 1312.81 61.7353 1304.6 71.6597 1293.93C81.4381 1283.1 89.903 1269.81 94.8652 1255.13C99.6814 1240.45 101.141 1224.19 102.6 1208.11H0V1330.99Z" fill="#1A75FF"/>
</g>
<defs>
<clipPath id="clip0_8_108">
<rect width="1728" height="1822" fill="white"/>
</clipPath>
</defs>
</svg>
