<svg width="1728" height="822" viewBox="0 0 1728 822" fill="none" xmlns="http://www.w3.org/2000/svg">
<g clip-path="url(#clip0_13_2)">
<path d="M0 190.43L26.304 195.91C52.416 201.39 105.024 212.35 157.44 200.02C209.856 187.69 262.464 152.07 314.496 137C366.72 121.93 418.56 127.41 470.784 149.33C522.816 171.25 575.424 209.61 627.84 210.98C680.256 212.35 732.864 176.73 785.28 156.18C837.696 135.63 890.304 130.15 942.72 158.92C995.136 187.69 1047.74 250.71 1100.16 278.11C1152.58 305.51 1205.18 297.29 1257.22 268.52C1309.44 239.75 1361.28 190.43 1413.5 171.25C1465.54 152.07 1518.14 163.03 1570.56 202.76C1622.98 242.49 1675.58 310.99 1701.7 345.24L1728 379.49V0H1701.7C1675.58 0 1622.98 0 1570.56 0C1518.14 0 1465.54 0 1413.5 0C1361.28 0 1309.44 0 1257.22 0C1205.18 0 1152.58 0 1100.16 0C1047.74 0 995.136 0 942.72 0C890.304 0 837.696 0 785.28 0C732.864 0 680.256 0 627.84 0C575.424 0 522.816 0 470.784 0C418.56 0 366.72 0 314.496 0C262.464 0 209.856 0 157.44 0C105.024 0 52.416 0 26.304 0H0V190.43Z" fill="white"/>
<path d="M0 305.51L26.304 321.95C52.416 338.39 105.024 371.27 157.44 378.12C209.856 384.97 262.464 365.79 314.496 354.83C366.72 343.87 418.56 341.13 470.784 345.24C522.816 349.35 575.424 360.31 627.84 361.68C680.256 363.05 732.864 354.83 785.28 353.46C837.696 352.09 890.304 357.57 942.72 365.79C995.136 374.01 1047.74 384.97 1100.16 397.3C1152.58 409.63 1205.18 423.33 1257.22 409.63C1309.44 395.93 1361.28 354.83 1413.5 347.98C1465.54 341.13 1518.14 368.53 1570.56 393.19C1622.98 417.85 1675.58 439.77 1701.7 450.73L1728 461.69V376.75L1701.7 342.5C1675.58 308.25 1622.98 239.75 1570.56 200.02C1518.14 160.29 1465.54 149.33 1413.5 168.51C1361.28 187.69 1309.44 237.01 1257.22 265.78C1205.18 294.55 1152.58 302.77 1100.16 275.37C1047.74 247.97 995.136 184.95 942.72 156.18C890.304 127.41 837.696 132.89 785.28 153.44C732.864 173.99 680.256 209.61 627.84 208.24C575.424 206.87 522.816 168.51 470.784 146.59C418.56 124.67 366.72 119.19 314.496 134.26C262.464 149.33 209.856 184.95 157.44 197.28C105.024 209.61 52.416 198.65 26.304 193.17L0 187.69V305.51Z" fill="#CFC3EC"/>
<path d="M0 437.03L26.304 454.84C52.416 472.65 105.024 508.27 157.44 502.79C209.856 497.31 262.464 450.73 314.496 428.81C366.72 406.89 418.56 409.63 470.784 412.37C522.816 415.11 575.424 417.85 627.84 415.11C680.256 412.37 732.864 404.15 785.28 408.26C837.696 412.37 890.304 428.81 942.72 446.62C995.136 464.43 1047.74 483.61 1100.16 491.83C1152.58 500.05 1205.18 497.31 1257.22 483.61C1309.44 469.91 1361.28 445.25 1413.5 439.77C1465.54 434.29 1518.14 447.99 1570.56 468.54C1622.98 489.09 1675.58 516.49 1701.7 530.19L1728 543.89V458.95L1701.7 447.99C1675.58 437.03 1622.98 415.11 1570.56 390.45C1518.14 365.79 1465.54 338.39 1413.5 345.24C1361.28 352.09 1309.44 393.19 1257.22 406.89C1205.18 420.59 1152.58 406.89 1100.16 394.56C1047.74 382.23 995.136 371.27 942.72 363.05C890.304 354.83 837.696 349.35 785.28 350.72C732.864 352.09 680.256 360.31 627.84 358.94C575.424 357.57 522.816 346.61 470.784 342.5C418.56 338.39 366.72 341.13 314.496 352.09C262.464 363.05 209.856 382.23 157.44 375.38C105.024 368.53 52.416 335.65 26.304 319.21L0 302.77V437.03Z" fill="#9E8AD8"/>
<path d="M0 667.19L26.304 685C52.416 702.81 105.024 738.43 157.44 746.65C209.856 754.87 262.464 735.69 314.496 717.88C366.72 700.07 418.56 683.63 470.784 680.89C522.816 678.15 575.424 689.11 627.84 691.85C680.256 694.59 732.864 689.11 785.28 697.33C837.696 705.55 890.304 727.47 942.72 735.69C995.136 743.91 1047.74 738.43 1100.16 735.69C1152.58 732.95 1205.18 732.95 1257.22 730.21C1309.44 727.47 1361.28 721.99 1413.5 721.99C1465.54 721.99 1518.14 727.47 1570.56 728.84C1622.98 730.21 1675.58 727.47 1701.7 726.1L1728 724.73V541.15L1701.7 527.45C1675.58 513.75 1622.98 486.35 1570.56 465.8C1518.14 445.25 1465.54 431.55 1413.5 437.03C1361.28 442.51 1309.44 467.17 1257.22 480.87C1205.18 494.57 1152.58 497.31 1100.16 489.09C1047.74 480.87 995.136 461.69 942.72 443.88C890.304 426.07 837.696 409.63 785.28 405.52C732.864 401.41 680.256 409.63 627.84 412.37C575.424 415.11 522.816 412.37 470.784 409.63C418.56 406.89 366.72 404.15 314.496 426.07C262.464 447.99 209.856 494.57 157.44 500.05C105.024 505.53 52.416 469.91 26.304 452.1L0 434.29V667.19Z" fill="#6754C3"/>
<path d="M0 823.37H26.304C52.416 823.37 105.024 823.37 157.44 823.37C209.856 823.37 262.464 823.37 314.496 823.37C366.72 823.37 418.56 823.37 470.784 823.37C522.816 823.37 575.424 823.37 627.84 823.37C680.256 823.37 732.864 823.37 785.28 823.37C837.696 823.37 890.304 823.37 942.72 823.37C995.136 823.37 1047.74 823.37 1100.16 823.37C1152.58 823.37 1205.18 823.37 1257.22 823.37C1309.44 823.37 1361.28 823.37 1413.5 823.37C1465.54 823.37 1518.14 823.37 1570.56 823.37C1622.98 823.37 1675.58 823.37 1701.7 823.37H1728V721.99L1701.7 723.36C1675.58 724.73 1622.98 727.47 1570.56 726.1C1518.14 724.73 1465.54 719.25 1413.5 719.25C1361.28 719.25 1309.44 724.73 1257.22 727.47C1205.18 730.21 1152.58 730.21 1100.16 732.95C1047.74 735.69 995.136 741.17 942.72 732.95C890.304 724.73 837.696 702.81 785.28 694.59C732.864 686.37 680.256 691.85 627.84 689.11C575.424 686.37 522.816 675.41 470.784 678.15C418.56 680.89 366.72 697.33 314.496 715.14C262.464 732.95 209.856 752.13 157.44 743.91C105.024 735.69 52.416 700.07 26.304 682.26L0 664.45V823.37Z" fill="#0020AE"/>
</g>
<defs>
<clipPath id="clip0_13_2">
<rect width="1728" height="822" fill="white"/>
</clipPath>
</defs>
</svg>
